<?xml version="1.0" encoding="UTF-8"?>
<svg id="Ebene_2" data-name="Ebene 2" xmlns="http://www.w3.org/2000/svg" viewBox="0 0 958.91 809.67">
  <defs>
    <style>
      .cls-1 {
        fill: #d58d47;
      }

      .cls-2 {
        fill: #003c4b;
      }

      .cls-3 {
        fill: #5d514c;
      }

      .cls-4 {
        fill: #00687b;
      }

      .cls-5 {
        fill: #003947;
      }

      .cls-6 {
        fill: #5a554b;
      }

      .cls-7 {
        fill: #fff;
      }

      .cls-8 {
        fill: #106f7e;
      }

      .cls-9 {
        fill: #6bb3bf;
      }
    </style>
  </defs>
  <path class="cls-5" d="M136.42,534.46c-4.68-1.11-8.73-2.35-9.02-2.74-.6-.83-19.02-3.28-36.48-4.85-7.28-.65-13.38-1.75-15.5-2.79-4.02-1.96-6.51-6.36-8.21-14.49-1.54-7.31-1.02-8.01,14.86-20.26,16.26-12.53,25.03-21.3,29.13-29.1,2.96-5.65,3.22-6.89,3.22-15.55,0-8.09-.36-10.14-2.55-14.53-1.4-2.81-4.52-6.93-6.93-9.15-4.14-3.82-22.97-14.13-25.8-14.13s-17.63-7.96-18.83-10.18c-.72-1.32-1.27-5.85-1.28-10.52-.02-11.97,1.31-13.05,22.44-18.23,21.13-5.19,33.92-13.18,39.57-24.73,3.77-7.7,3.77-18.66.02-26.07-4.23-8.34-12.56-17.71-23.64-26.58-14.57-11.66-14.32-11.32-13.83-19.04.32-4.99,1.04-7.35,3.2-10.47,1.54-2.22,3.55-4.32,4.46-4.68.92-.35,10.58-.61,21.47-.56,21.93.09,29.42-1.03,37.92-5.66,5.8-3.16,9.85-7.5,13.28-14.28,2.11-4.16,2.5-6.33,2.5-13.79,0-8.47-.2-9.26-4.55-18.21-2.5-5.14-6.94-12.98-9.87-17.42-10.75-16.34-11.68-22.14-4.77-29.79,5.15-5.72,9.03-7.21,13.92-5.39,26.72,9.99,36.38,12.33,46.18,11.18,11.86-1.39,22.74-9.34,27.92-20.38,2.45-5.22,2.66-6.7,2.6-17.7-.07-11.03-.38-12.97-3.88-24-2.1-6.6-3.87-14.18-3.93-16.85-.12-4.68.09-5.05,5.63-10.21,10.09-9.4,13.4-8.66,31.25,6.99,7.14,6.26,13.61,10.95,18.45,13.36,6.87,3.42,8.08,3.7,15.5,3.57,13.4-.23,22.82-5.02,29.41-14.96,4.82-7.28,5.96-13.01,6.98-35.16.75-16.18,1.28-20.78,2.63-22.83,2.21-3.38,10.96-7.39,16.16-7.4,3.49-.01,4.74.6,8,3.9,2.13,2.15,6.11,7.67,8.84,12.25,2.73,4.59,5.88,9.44,7,10.79,5.55,6.68,14.61,14.51,19.53,16.89,4.72,2.28,6.77,2.66,14.5,2.64,7.59-.02,9.89-.44,14.68-2.66,7.46-3.47,13.83-9.47,17.58-16.57,1.67-3.16,5.35-12.47,8.18-20.69,2.82-8.22,6.04-16.4,7.14-18.19,2.58-4.17,7.4-5.79,15.17-5.08,8.36.76,10.93,3.44,14.77,15.43,1.64,5.12,2.98,9.81,2.98,10.43,0,1.82,6.59,17.96,9.21,22.55,2.74,4.81,5.23,6.96,12.33,10.66,10.68,5.57,22.3,5.77,32.65.55,7.42-3.75,20.14-15.79,26.33-24.94,2.58-3.81,6.48-8.96,8.67-11.45,3.54-4.03,4.44-4.52,8.14-4.48,6,.07,13.68,3.01,15.97,6.12,1.62,2.21,2.18,5.72,3.29,20.65,2.17,29.13,4.74,36.46,16.06,45.68,6.17,5.03,10.17,6.04,23.15,5.87,7.33-.1,9.1-.51,14.97-3.49,7.27-3.68,15.17-9.23,24.95-17.52,3.47-2.94,7.17-5.35,8.23-5.35s2.24-.5,2.62-1.11c1.01-1.63,6.9-.39,11.84,2.5,2.73,1.61,5.1,4.1,6.63,6.98l2.38,4.49-3.3,9.32c-7.03,19.87-8.25,25.49-7.87,36.32.42,11.71,2.01,15.6,9.41,23,5.15,5.15,9.9,7.59,18.58,9.53,7.59,1.7,19.16-.45,37.91-7.05,7.79-2.74,15.38-4.98,16.86-4.98,3.18,0,8.48,3.39,11.33,7.24,3.21,4.33,3.48,13.48.56,18.92-1.29,2.39-2.99,5.13-3.78,6.1-.79.96-1.93,2.62-2.53,3.68-.6,1.06-2.69,4.32-4.64,7.25-1.96,2.92-5.27,9.24-7.38,14.05-3.64,8.32-3.8,9.15-3.37,17,.31,5.69,1.1,9.51,2.52,12.26,2.35,4.53,9.94,13.5,11.44,13.5.54,0,1.63.64,2.42,1.43.78.79,4.91,2.21,9.15,3.15,6.53,1.46,10.87,1.63,27.9,1.1,19.1-.6,20.29-.53,22.68,1.35,3.54,2.79,7.69,11.59,7.69,16.32,0,3.65-.64,4.57-8.25,11.88-4.54,4.35-9.43,8.54-10.87,9.3-4.29,2.27-15.23,14.81-18.41,21.11-2.62,5.2-2.96,6.88-2.96,14.86-.01,10.68,1.33,14.04,8.55,21.37,8.21,8.34,18.91,13.14,39.24,17.63,5.97,1.32,8.57,2.46,11.13,4.87,5.21,4.91,7.03,14.2,4.14,21.11-1.48,3.56-7.01,6.97-18.82,11.62-13.95,5.49-22.44,10.69-29.06,17.79-6.37,6.83-7.85,10.65-7.85,20.35,0,6.7.44,8.79,2.83,13.55,3.94,7.85,17.39,21.16,31.51,31.18,7.65,5.43,12.09,9.27,12.87,11.15,2.62,6.33-1.66,19.99-7.08,22.55-1.36.64-6.97,1.67-12.47,2.29s-15.68,2.06-22.62,3.19l-12.62,2.05-8.38-3.68c-7.58-3.33-9.17-3.67-16.63-3.56l-8.25.12v-5.54c0-5.49-.03-5.54-3-5.54-3.63,0-3.63.07-.94-14.5,1.11-6.05,3.5-24.05,5.31-40,2.58-22.76,3.12-30.72,2.53-37-.41-4.4-1.47-16.55-2.35-27.01-.88-10.45-2.04-21.48-2.58-24.5-.54-3.02-1.46-8.64-2.06-12.49-1.16-7.55-6.5-28.97-10.51-42.18-3.14-10.37-15.6-40.71-19.63-47.82-.63-1.1-3.16-5.6-5.64-10-5.49-9.74-15.61-24.6-23.09-33.88-3.05-3.79-6.66-8.32-8.04-10.07-8.9-11.36-31.02-32.94-45-43.89-10.31-8.07-35.03-24.62-42-28.11-4.12-2.06-8.85-4.57-10.5-5.56-10.26-6.2-45.3-19.19-67.5-25.02-12.63-3.33-16.54-4.18-25.26-5.49-5.36-.81-11.66-1.89-14-2.4-15.73-3.45-55.9-4.37-76.74-1.76-21.95,2.74-56.62,9.94-65.5,13.59-1.1.46-7.38,2.57-13.96,4.71-14.86,4.82-50.24,22.01-64.54,31.36-33.35,21.8-61.62,47.99-83.31,77.21-6.25,8.42-11.96,16.43-12.68,17.81s-1.59,2.73-1.93,3c-2.97,2.38-17.99,32.11-25.05,49.58-3.31,8.2-6.03,15.43-6.03,16.04s-1.08,4.44-2.41,8.5c-4.23,12.99-11.33,47.75-12.73,62.38-.74,7.7-1.27,18.5-1.18,24,.09,5.5-1.86,37.35,4.74,70.52,5.49,34.13,13.37,39.27-3.09,48.35-.46.81-2.85,3-5.33,4.86l-4.5,3.39-8.5-2.03Z"/>
  <ellipse class="cls-7" cx="474.12" cy="423.64" rx="327.47" ry="325.07"/>
  <ellipse class="cls-9" cx="474.12" cy="423.64" rx="309.44" ry="307.18"/>
  <path class="cls-5" d="M231.34,415.48l-24.92,43.1,30.65,11.27,24.06-11.39,5.55,13.48,15.44-6.62-3.82,39.87h40.25s-6.61-45.61-6.61-45.61l30.67,11.66,6.53-17.44,34.54,4.41-28.09-45.43,19.63-.1-35.46-50.09,8.98-5.35-18.27-29.84,13.48,4.3-27.91-35.36,20.5,2.14c-17.74-16.62-32.39-34.95-42.23-55.95v-.14c-6.26,18.86-17.8,37.66-41.4,56.31l13.96,4.7-25.38,34.15,20.49-9.29c-6.1,19.8-12.9,29.66-38.08,49.45l15.45,11.08-23.81,26.83,15.81-.17h0Z"/>
  <path class="cls-5" d="M412.72,375.99l9.9.1-14.91-16.8,9.68-6.94c-15.77-12.39-20.03-18.57-23.85-30.97l12.83,5.82-15.89-21.39,8.74-2.95c-14.78-11.68-22-23.45-25.92-35.26v.09c-6.16,13.15-15.34,24.63-26.45,35.04l12.84-1.34-17.48,22.14,8.44-2.69-11.44,18.68,5.62,3.35-22.21,31.37,12.29.07-17.59,28.45,21.63-2.76,4.09,10.92,19.21-7.3-4.14,28.56h25.2l-2.39-24.97,9.67,4.15,3.48-8.44,15.07,7.14,19.2-7.06-15.61-26.99h0Z"/>
  <path class="cls-5" d="M517.78,369.18l13.66.14-20.58-23.19,13.36-9.58c-21.76-17.11-27.64-25.63-32.91-42.74l17.71,8.03-21.93-29.51,12.06-4.07c-20.4-16.12-30.36-32.37-35.78-48.67v.12c-8.51,18.15-21.17,33.99-36.5,48.36l17.72-1.85-24.12,30.56,11.65-3.72-15.79,25.79,7.76,4.62-30.65,43.29,16.96.09-24.28,39.26,29.85-3.81,5.65,15.07,26.51-10.08-5.71,39.42h34.78l-3.31-34.46,13.34,5.72,4.8-11.65,20.79,9.85,26.49-9.74-21.54-37.25h0Z"/>
  <path class="cls-5" d="M792.66,425.72l6.34.07-9.54-10.75,6.19-4.44c-10.09-7.93-12.81-11.88-15.26-19.82l8.21,3.72-10.17-13.68,5.59-1.88c-9.46-7.47-14.08-15.01-16.59-22.56v.06c-3.94,8.42-9.82,15.76-16.92,22.42l8.21-.86-11.18,14.17,5.4-1.72-7.32,11.96,3.6,2.14-14.21,20.07,7.86.04-11.26,18.2,13.84-1.77,2.62,6.99,12.29-4.67-2.65,18.28h16.13l-1.53-15.98,6.19,2.65,2.22-5.4,9.64,4.57,12.28-4.52-9.99-17.27h0Z"/>
  <path class="cls-5" d="M230.81,474.65l6.34.07-9.54-10.75,6.19-4.44c-10.09-7.93-12.81-11.88-15.26-19.82l8.21,3.72-10.17-13.68,5.59-1.88c-9.46-7.47-14.08-15.01-16.59-22.56v.06c-3.94,8.42-9.82,15.76-16.92,22.42l8.21-.86-11.18,14.17,5.4-1.72-7.32,11.96,3.6,2.14-14.21,20.07,7.86.04-11.26,18.2,13.84-1.77,2.62,6.99,12.29-4.67-2.65,18.28h16.13l-1.53-15.98,6.19,2.65,2.22-5.4,9.64,4.57,12.28-4.52-9.99-17.27h0Z"/>
  <path class="cls-5" d="M144.24,517.33h0c1.5-1.43,3.16-2.69,4.94-3.75l71.97-42.79c.55-.33,1.12-.64,1.69-.93l118.45-59.64c1.59-.8,3.26-1.45,4.97-1.93l125.38-35.03c2.03-.57,4.12-.9,6.22-.99l97.99-4.22c2.35-.1,4.7.1,6.99.59l129.72,27.99,73.53,19.21c6.42,1.68,12.01,5.61,15.76,11.09l5.92,8.65c6.05,8.84,24.83,79.08,19.36,88.3l.99,31.09c0,8.94-6.9,16.33-15.81,17.02-25.11,1.95-72.57-4.9-79.86-4.93l-618.48,3.28c-24.78-.1,12.35-35.9,30.26-53.02Z"/>
  <path class="cls-4" d="M335.41,473.67c-9.2-3.68-19.37-20.39-14.24-26.15s11.82-11.8,22.51-17.17,30.31-13.47,44.88-17.9q23.13-7.03,47.13-12.79c11.48-2.76,8.67-2.81,40.31-8.25,24.42-4.2,48.63-8.27,48.63-8.27l-1.81,9.68-27.13,5.68s-45.12,10.13-54.31,12.99c-19.67,6.11-37.33,11.46-43.59,14s-17.75,8.59-23.65,12.41c-7.38,4.78-14.86,9.11-7.38,16.33s14.4,10.74,31.02,14.36,22.84,3.57,40.27,7.95c16.61,4.18,30.36,8.55,39.76,15.32,10.95,7.87,18.36,17.59,18.39,32.67s-2.76,17.89-9.59,26.81-2.19,12.64-2.19,12.64l-208.73.22,4.33-.71s23.13-4.46,44.78-9.97,36.57-9.33,51.3-15.16,24.18-10.36,31.1-15.81,12.33-9.06,11.22-16.83c-1.2-8.41-20.1-11.45-33.33-15.51-19.48-5.98-33.66-10.07-33.66-10.07"/>
  <path class="cls-4" d="M558.12,563.9s6.99-4.11,14.58-13.19c8.74-10.45,13.12-12.32,11.82-27.61-1.14-13.4-7.52-13.81-38.49-25.21s-29.87-11.02-56.67-18.8c-27.2-7.89-47.37-8.43-64.19-15.02s-28.35-14.23-19.96-23.2c8.91-9.52,30.8-16.95,41.91-20.96,19.62-7.09,25.64-8.42,55.97-11.95,11.11-1.29,21.28-2.66,21.28-2.66l.26,8.19-15.31,1.77-13.61,2.32c-1.84.31-5.25,1.03-9.31,2.34l-8.97,2.56c-8.36,2.39-16.31,5.53-19.83,9.82s-10.15,14.21,7.22,19.69,42.08,10.15,47.7,11.17,41.88,7.81,41.88,7.81c0,0,8.52-.96,34.5,8.19s24.61,8.49,48.33,18.67,38.55,18.25,38.55,18.25c0,0,13.16,7.82,17.12,11.47s7.46,7.38,9.36,10.09,3.1,8.12-4.65,2.99-18.1-11.38-25.9-15.83-25.61-13.49-35.06-17.31-14.98-6.31-14.98-6.31c0,0-11.79-3.89,4.4,6.12s18.47,11.26,24.76,14.94,15.31,10.2,15.65,18.67,10.52,15.79,4.3,15.21-7.45-.7-8.1-4.3-3.29-3.49-3.84-.85-3.6,3.74-5.88,1.51-5.13-3.06-8.64-1.34-4.71,2.69-5.05-2.15-7.26-2.59-7.26-2.59c0,0-4.15,5.29-9.89,5.99-6.75.82-6.53,2.24-8.9,4.25s-5.82,5.53-4.53-2.65,1.29-8.18,2.37-10.25c4.88-9.41,1.58-20.01-4.37-9.3s-10.57,19.98-10.57,19.98c0,0-4.44,5.29-11.3,9.78l-26.7-.3Z"/>
  <path class="cls-8" d="M119.32,557.71c0-.54,2.28-2.95,5.07-5.35,2.79-2.41,5.61-4.94,6.25-5.64,2.07-2.23,14.93-12.57,22.68-18.23,4.12-3.01,8.09-6.04,8.82-6.74.73-.69,1.78-1.26,2.33-1.26s2.89-1.53,5.18-3.4c4.11-3.35,21.76-15.4,24.67-16.84.82-.41,4.43-2.62,8-4.9,3.57-2.29,9.43-5.71,13-7.59,3.58-1.89,8.08-4.29,10-5.34,1.92-1.04,4.62-2.36,6-2.92s4.75-2.34,7.5-3.95,5.54-2.96,6.21-2.99c.66-.04,3.49-1.42,6.28-3.06,4.95-2.92,9.6-4.37,17.28-5.39l3.77-.5-1.74,2.95c-1.73,2.94-12.13,10.93-14.21,10.93-.6,0-1.09.45-1.09,1s-.57,1-1.27,1-3.55,1.5-6.32,3.32c-2.78,1.83-5.69,3.65-6.48,4.04-7.2,3.6-26.93,19.24-26.93,21.34,0,1.75,2.19,1.51,11-1.2,8.25-2.53,14.13-4.13,17.71-4.82,2.68-.51,3.1-.35,2.58,1.01-.54,1.4-.03,1.52,3.71.93,3.05-.49,4.57-.32,5.11.56.62,1,2.13.91,7.25-.46,7.83-2.08,8.73-2.12,8.04-.32-.29.77-.17,1.62.28,1.89,1.07.63,14.3-.75,16.57-1.74,1.04-.46,1.75-.34,1.75.29,0,1.02-9.24,6.16-11.08,6.16-.5,0-3.73,1.31-7.17,2.91-4.57,2.13-8.16,3.01-13.38,3.28-4.24.21-7.83.94-8.86,1.8-2.62,2.18-8.11,3.81-10.97,3.26-2.24-.43-4.37.25-12.04,3.82-1.1.51-3.12,1.04-4.5,1.18-2.08.21-2.45-.13-2.19-2,.44-3.13-1.3-2.85-8.19,1.3-3.23,1.95-9.15,5.31-13.15,7.47-6.27,3.38-7.44,3.72-8.5,2.45-1.61-1.95-3.6-1.85-6.82.33-1.46.99-5.4,3.24-8.76,4.99-6.07,3.16-6.12,3.16-7.9,1.19-.99-1.09-2.31-1.98-2.92-1.98s-4.25,2.25-8.07,5-7.81,5-8.88,5-3.41,1.12-5.21,2.5-3.76,2.5-4.34,2.5-1.07.44-1.07.98c0,1.6-4.88,2.36-6.51,1.01-1.42-1.18-2.93-1.06-6.74.5-.97.4-1.75.28-1.75-.27Z"/>
  <path class="cls-8" d="M786.19,522.22c-2.2-1.14-4.67-2.43-5.5-2.85-1.31-.68-5.95-3.42-18.75-11.1-2.69-1.6-3.14-1.67-2.64-.36.33.87,1.01,1.58,1.5,1.58s.89.67.89,1.5c0,2.06-.6,1.91-4.58-1.13-2.83-2.16-4.12-2.51-7.24-2.01-3.01.48-5.05-.02-9.74-2.35-3.27-1.62-6.5-2.96-7.19-2.98-.69-.02-1.25-.48-1.25-1.03s-.56-1-1.25-1.01c-.69,0-2.6-.72-4.25-1.59-6.63-3.5-13.77-5.62-17.09-5.08-1.86.3-4.85.12-6.64-.41-1.8-.53-6.61-1.43-10.7-2.01-4.08-.58-9.48-1.97-12-3.09-2.51-1.13-6.15-2.69-8.07-3.48-1.92-.79-4.62-2.03-6-2.75-1.38-.72-3.74-1.6-5.25-1.96s-2.75-1.15-2.75-1.75c0-1.07,3.18-.84,9.32.69,1.72.43,3.78.19,5.25-.6,1.87-1,2.95-1.03,4.68-.15,5.55,2.83,12.16,4.26,18.99,4.12,6.62-.14,8.03.21,15.99,4.03,4.79,2.3,9.23,3.87,9.85,3.49.81-.5.76-.93-.19-1.52-.73-.45-1.07-1.09-.74-1.41.32-.33,4.36,1.08,8.97,3.12,5.82,2.58,9.91,3.74,13.38,3.8,3.31.05,6.18.82,8.5,2.28,1.92,1.21,4.91,2.84,6.63,3.64,1.72.79,3.43,1.93,3.81,2.54.37.6,2.21,1.1,4.09,1.1,2.76,0,5.25,1.49,13.19,7.91,9.45,7.63,13.03,11.51,11.51,12.44-.4.25-2.53-.48-4.73-1.62Z"/>
  <polygon class="cls-5" points="488.69 208.38 488.69 190.6 553.12 166.05 622.96 194.86 622.96 205.65 615.79 212.45 615.54 236.86 602.77 242.61 602.77 302.16 602.77 435.21 549.1 439.36 497.45 440.32 501.69 249.02 488.72 242.5 488.69 208.38"/>
  <polygon class="cls-1" points="501.43 440.13 506.01 248.35 554.51 232.58 549.1 439.36 501.43 440.13"/>
  <polygon class="cls-1" points="494.14 231.22 494.14 237.96 553.05 217.21 553.05 209.49 494.14 231.22"/>
  <polygon class="cls-1" points="494.14 196.03 494.14 203.23 553.05 182.29 553.05 174.19 494.14 196.03"/>
  <polygon class="cls-1" points="494.14 231.22 494.14 205.91 499.88 229.11 494.14 231.22"/>
  <polyline class="cls-1" points="553.05 210.52 553.05 188.8 546.71 211.83"/>
  <polygon class="cls-3" points="553.05 174.19 617.01 199.36 617.01 205.06 553.05 182.29 553.05 174.19"/>
  <polygon class="cls-3" points="553.05 209.1 610.85 228.37 610.85 234.07 553.05 217.2 553.05 209.1"/>
  <polygon class="cls-3" points="558.95 211.07 553.05 188.8 553.05 209.49 558.95 211.07"/>
  <polyline class="cls-3" points="610.85 228.63 610.85 206.91 605.44 226.57"/>
  <path class="cls-3" d="M515.87,436.23l.8-33.31c.04-1.47,1.2-2.65,2.67-2.71l11.22-.44c1.6-.06,2.92,1.23,2.89,2.83l-.66,33.23c-.03,1.46-1.19,2.66-2.65,2.72l-11.36.52c-1.61.07-2.95-1.23-2.91-2.84Z"/>
  <path class="cls-3" d="M518.18,369.82l.4-18.11c.02-.96.8-1.74,1.76-1.76l13.19-.29c1.02-.02,1.85.81,1.84,1.83l-.26,17.87c-.01.88-.71,1.58-1.59,1.61l-13.83.36c-.84.02-1.52-.66-1.51-1.5Z"/>
  <path class="cls-3" d="M519.32,321.74l.36-16.47c.02-.88.73-1.58,1.6-1.6l11.99-.26c.93-.02,1.69.73,1.67,1.66l-.23,16.25c-.01.8-.65,1.44-1.44,1.46l-12.58.33c-.76.02-1.39-.6-1.37-1.36Z"/>
  <path class="cls-3" d="M521.92,275.82l.32-14.7c.02-.78.65-1.41,1.43-1.43l10.7-.23c.83-.02,1.51.65,1.49,1.48l-.21,14.51c-.01.71-.58,1.29-1.29,1.3l-11.23.29c-.68.02-1.24-.54-1.22-1.22Z"/>
  <path class="cls-5" d="M745.24,429.55l.8-9.85c.12-1.54.08-3.09-.15-4.62l-.64-4.38c-.23-1.59-.37-3.2-.41-4.81l-.22-8.59c-.04-1.62-.15-3.23-.32-4.84l-.98-9.26c-.05-.47-.13-.94-.25-1.4l-2.18-8.48c-.04-.17-.07-.35-.09-.53l-.59-7.69c-.02-.25-.07-.49-.14-.73l-2.91-8.88c-.06-.19-.1-.38-.13-.57l-2.13-16.69c-.03-.24-.09-.48-.18-.71l-3.97-10.38c-.04-.1-.08-.2-.13-.29l-6.13-12.1c-.03-.06-.06-.12-.08-.18l-2.71-6.34-1.39-3.64c-.38-.99-1.24-1.72-2.29-1.93l-5.52-1.09c-.39-.08-.77-.23-1.11-.45l-9.33-6.17c-.05-.03-.1-.07-.15-.11l-10.81-8.14c-.58-.44-1.3-.66-2.03-.62l-20.63,1.14-22.52.13c-.24,0-.48.03-.71.09l-7.92,1.92c-.21.05-.42.13-.62.22l-12.98,6.3-20.1,8.58c-.07.03-.13.06-.19.09l-8.03,4.1c-.62.32-1.11.83-1.4,1.46l-9.2,20.09c-.17.36-.26.76-.28,1.16l-1.45,34.99c0,.18-.03.35-.07.52l-4.06,18.82-7.44,30.39c-.06.25-.15.49-.27.71l-7.31,13.78-5.01,9.07c-.43.78-1.18,1.34-2.06,1.53l-12.2,2.59c-1.72.37-2.79,2.1-2.34,3.81l1.1,4.18c.33,1.25,1.41,2.17,2.7,2.29l23.86,2.22c.37.03.73,0,1.09-.09l9.8-2.63c.48-.13.97-.14,1.45-.04l32,6.93c.07.02.14.03.21.04l28.93,4.21c.24.04.49.04.73.02l20.58-1.9c.3-.03.6-.01.89.05l21.49,4.29c.25.05.5.07.75.06,4.24-.21,43.11-2.12,43.87-1.96s20.73-1.22,24.09-1.45c.32-.02.62-.09.92-.21l14.03-5.53c1.51-.6,2.3-2.26,1.81-3.81l-2.83-8.93c-.3-.95-1.05-1.7-2-2.01l-18.63-5.99c-.44-.14-.85-.38-1.18-.7h0c-1.91-1.82-2.9-4.41-2.69-7.04Z"/>
  <path class="cls-6" d="M701.39,349.84s0,0-.01,0l-3.66-1.08c-.52-.12-1.02-.31-1.49-.58l-1.78-1.03c-.63-.37-1.44-.18-1.84.43l-.15.22c-.25.38-.38.82-.38,1.28l.11,14.19-.1,16.1c0,1.38.2,2.75.62,4.06l.11.33c.27.84.94,1.5,1.79,1.75l.34.1c.83.24,1.73.03,2.36-.55l1.9-1.76c.58-.53,1.05-1.17,1.4-1.87h0c.55-1.09,1.67-1.76,2.89-1.74l3.21.07c.05,0,.1,0,.16.01l3.42.39c1.29.15,2.5-.64,2.87-1.88l.5-1.63c.28-.91.28-1.89-.02-2.8-.44-1.35-1.23-3.15-2.33-3.41-2.07-.49-4.47-.32-6.82-.39-.99-.03-1.96-.23-2.9-.55l-1.27-.44c-1.93-.67-3.08-2.66-2.68-4.67l.1-.51c.1-.49.28-.95.55-1.37l.88-1.38c.66-1.03,1.71-1.74,2.91-1.95l3.15-.56c1.67-.3,3.21-1.08,4.44-2.25l1.09-1.04c1.03-.98,1.1-2.6.16-3.66l-1.57-1.8c-.67-.77-1.76-1.01-2.7-.59l-.33.14c-1.21.54-3.64.7-4.93.42Z"/>
  <path class="cls-6" d="M714.63,390.47l-1.08-.05c-1.18-.05-2.35.26-3.34.9l-5.2,3.34c-.77.5-1.65.8-2.57.88l-11.88,1.1c-.78.07-1.57-.02-2.31-.26-2.54-.83-8.51-2.77-8.8-2.77-.35,0-16.63,1.97-18.89,2.24l-.52.09-14.06,3.04-20.26,3.66c-.57.1-1.13.29-1.65.57l-9.05,4.76c-1.29.68-2.28,1.83-2.75,3.21l-1.1,3.19c-.21.6-.31,1.23-.31,1.86v1.59c0,2.03,1.08,3.91,2.83,4.94l4.52,2.65.28.17,12.28,8.18c.3.2.62.37.96.51l5.4,2.27c.75.32,1.43.79,1.98,1.38l.52.56c1.15,1.23,2.77,1.9,4.46,1.83l3.28-.15c.47-.02.94-.1,1.4-.24l2.66-.8c1.88-.57,3.34-2.05,3.86-3.94h0c.6-2.15,2.4-3.76,4.6-4.11l3.41-.55.92-.07h6.36c1.11,0,2.2-.32,3.13-.93l7.28-4.76.71-.54,9.94-8.98c.3-.27.63-.51.99-.72l8.44-4.85,2.54-1.29c1.45-.73,3.14-.82,4.65-.24l1.25.48c.66.25,1.36.38,2.06.38h1.06c2.25,0,4.3-1.32,5.22-3.38l1.75-3.88c.33-.74.51-1.54.51-2.36v-3.21c0-3.07-2.42-5.59-5.48-5.73Z"/>
  <path class="cls-6" d="M581.24,419.87l23.03,5.57c.16.04.32.09.46.17l12.75,6.16,11.01,5.32,4.84,2.52c.48.25.86.66,1.07,1.16l.35.85c.48,1.16-.05,2.5-1.21,3.01l-2.7,1.18c-.33.14-.68.21-1.04.19l-5.34-.24c-.42-.02-.84.08-1.21.28l-6.43,3.51s-.88,1.37-4.95,2.21c-.68.14-5.94,2.18-14.19.19-6.21-1.49-13.75-3.76-14.41-3.75s-15.41.62-15.51.89c-.1.25-12.06.43-13.79.45-.14,0-.28,0-.42-.03h0c-2.26-.39-2.64-3.48-.54-4.4l6.71-2.94,10.18-4.75c.46-.22.84-.58,1.08-1.03l3.72-7.16c.27-.53.33-1.14.17-1.71l-.98-3.43c-.35-1.22.35-2.5,1.58-2.86l4.57-1.33c.39-.11.8-.12,1.19-.03Z"/>
  <path class="cls-6" d="M635.83,456.22l-3.06-.5c-1.21-.2-1.75-1.63-.98-2.58l1.97-2.42c.21-.26.5-.45.83-.54l14.12-3.71c.05-.01.1-.03.15-.05l5.98-2.23c.24-.09.45-.23.63-.42l1.71-1.89c.3-.33.73-.52,1.18-.52h9.78c.05,0,.1,0,.16,0l23.96-2.36c.15-.01.3,0,.45.02l8.66,1.62c.09.02.18.04.26.07l18.18,6.78c.21.08.43.11.65.1l12.33-.68c.15,0,.3-.04.44-.09l4.97-1.75c.73-.26,1.17-1,1.04-1.77l-.21-1.23c-.16-.93.53-1.8,1.47-1.85l7.73-.47c.12,0,.24,0,.36.02l5.35.91c.7.12,1.24.69,1.32,1.39l.17,1.48c.06.53.39,1,.87,1.24l7.09,3.55s.09.04.13.06l2.62,1.02c1.25.49,1.37,2.22.2,2.87l-2.15,1.2c-.36.2-.79.26-1.2.15l-8.88-2.41c-.7-.19-1.44.12-1.8.74l-3.16,5.48c-.13.22-.3.41-.52.54l-2.09,1.35c-.42.27-.94.33-1.41.16l-11.17-4.11s-.1-.03-.15-.05l-1.45-.38c-1.41-.37-2.53,1.19-1.74,2.41h0c.56.87.16,2.04-.82,2.37l-4.73,1.63c-.28.1-.58.11-.87.05l-15.24-3.41s-.06-.02-.09-.02l-9.74-2.82c-.54-.16-1.11-.02-1.52.36l-2.46,2.27c-.06.06-.13.11-.2.16-.79.53-5.87,3.87-6.28,3.56s-8.11-1.46-9.76-1.7c-.21-.03-.4-.1-.58-.21l-8.23-4.92c-.23-.14-.49-.21-.75-.22l-20.17-.85c-.23,0-.46.03-.68.12l-4.48,1.86c-.16.07-.33.11-.5.12l-7.33.52c-.12,0-.25,0-.37-.02Z"/>
  <path class="cls-6" d="M633.71,367.32l.36.71c.86,1.7,2.7,2.67,4.59,2.4l5.8-.82c.14-.02.27-.04.4-.08l12.26-2.92,14.66-3.27c.24-.05.48-.13.71-.22l8.31-3.38c1.01-.41,1.84-1.18,2.32-2.17l.8-1.64c.25-.52.4-1.08.44-1.66l.67-10.38c.02-.28,0-.56-.03-.84l-.88-7.01c-.2-1.62-1.28-3-2.8-3.58l-2.34-.91c-.71-.28-1.48-.36-2.24-.25l-8.78,1.26c-.17.02-.34.04-.51.04l-4.9.13c-.35,0-.69-.02-1.03-.09l-.77-.16c-.76-.16-1.24-.92-1.05-1.68h0c.1-.41.39-.75.77-.92l4.36-1.95c.15-.07.31-.13.47-.18l5.65-1.79c.19-.06.38-.14.56-.22l3.48-1.66c.33-.16.63-.35.91-.58l1.5-1.23c.7-.58,1.56-.92,2.46-1l3.41-.28c.5-.04,1.01,0,1.49.13l1.78.47c.82.22,1.55.66,2.13,1.28l.54.58c.44.48.77,1.04.97,1.66l.48,1.51c.36,1.13,1.16,2.07,2.21,2.6l.42.21c.57.29,1.19.45,1.83.48l4.67.2c.11,0,.21,0,.32,0l6.74-.2,7.37-.39,1.62-.09c2.58-.14,4.49-2.44,4.16-5h0c-.03-.23-.08-.46-.14-.68l-2.05-6.99c-.09-.32-.22-.63-.39-.92l-2.5-4.47c-.5-.9-1.31-1.6-2.27-1.97l-2.09-.81c-.19-.07-.38-.13-.57-.18l-3.95-.95c-.51-.12-1-.33-1.43-.63l-4.5-3.01c-.15-.1-.29-.21-.43-.32l-6.33-5.44c-.18-.15-.37-.29-.56-.41l-6.69-4.12c-.67-.41-1.44-.64-2.23-.66l-12.61-.28c-.11,0-.21,0-.32,0l-12.66.62c-.2,0-.39,0-.59-.01l-9.89-.83c-.37-.03-.74-.02-1.1.05l-8.31,1.39c-.56.09-1.1.29-1.58.59l-4.62,2.82c-.17.1-.34.19-.52.27l-20.17,8.92c-.24.11-.5.19-.76.26l-10.29,2.48c-.57.14-1.11.39-1.59.74l-3.21,2.35c-.67.49-1.18,1.16-1.49,1.92l-6.69,16.65c-.21.53-.32,1.09-.32,1.65v22.92c0,.48.08.95.23,1.41l2.4,7.18c.48,1.44,1.67,2.54,3.15,2.9l10.59,2.6c.28.07.57.05.84-.06l-5.8,12.64c-.13.29-.22.59-.26.91l-1.91,15.72c-.04.35-.02.7.05,1.03l1.88,8.47c.02.1.05.2.08.29l3.49,10.62c.41,1.26,1.59,2.11,2.91,2.11h.05c1.28,0,2.43-.8,2.87-2l5.93-16.07c.12-.32.29-.62.5-.88l7.45-9.09c.28-.11,6.48-19.88,7.92-24.36.19-.59.19-1.23.01-1.82l-4.83-15.87c.03-.05.05-.11.07-.17l3.33-9.83c.04-.11.07-.22.1-.33l1.31-5.17c.76-3.01,4.29-4.33,6.84-2.55l.52.36c.36.25.67.55.94.89l1.32,1.67c1.4,1.77,1.25,4.3-.34,5.89l-3.27,3.26c-.52.52-.91,1.17-1.12,1.88l-1.02,3.45c-.11.38-.17.77-.18,1.17l-.19,9.28c0,.11,0,.22,0,.32l.23,4.34c.03.61.19,1.21.47,1.76Z"/>
  <path class="cls-1" d="M666.78,335.14h-15.83c-.72,0-1.43.14-2.09.42l-3.07,1.29c-.66.28-1.37.42-2.09.42h-2.39c-1.89,0-3.65.99-4.62,2.61l-3.22,5.33c-.51.84-.78,1.81-.78,2.79v8.84c0,.19.01.39.03.58l.86,8c.29,2.65,2.46,4.69,5.12,4.82l3.35.16c.8.04,1.59-.1,2.33-.41l7.43-3.09c.46-.19.94-.32,1.43-.38l5.87-.7c.54-.06,1.07-.21,1.57-.43l6.19-2.78c.32-.14.66-.26,1-.34l7.41-1.71c.22-.05.44-.09.66-.11l1.73-.18c2.61-.27,4.66-2.38,4.84-5l.45-6.47c.01-.15.01-.31.01-.46l-.13-8.04c0-.19-.02-.37-.04-.56l-.22-1.84c-.17-1.41-.89-2.7-2-3.59h0c-1.26-1-2.91-1.39-4.49-1.06l-8.19,1.75c-.37.08-.75.12-1.13.12Z"/>
  <polygon class="cls-1" points="632.69 386.37 634.08 378.53 642.6 374.81 652.5 372.41 670.48 368.1 680.17 365.99 682.19 373.06 678.59 382.49 669.18 386.17 650.52 391.41 641.92 394.37 633.53 391.41 632.69 386.37"/>
  <path class="cls-1" d="M704.22,395.85l-3.92.88c-.07.02-.13.03-.2.04-1.25.21-13.83,2.24-14.4,1.31-.45-.75-5.27-2.94-7.53-3.93-.74-.33-1.57-.4-2.36-.21l-11.5,2.77c-.1.03-.21.05-.31.09l-8.37,2.8c-.33.11-.67.17-1.02.19l-17.13.74c-.24.01-.47.04-.7.1l-16.35,3.92c-.69.17-1.33.53-1.82,1.05l-4.01,4.21c-.98,1.03-1.28,2.52-.79,3.85l2.2,5.89c.23.6.6,1.14,1.1,1.55l12.86,10.71c.21.18.44.33.69.45l8.94,4.55c.34.17.7.29,1.08.35l7.2,1.19c.64.11,1.3.04,1.91-.19,1.03-.39,2.41-1.06,1.87-1.81-.83-1.16-7.1-8.75-7.1-9.24,0-.4,8.42-4.04,11.64-5.42.79-.34,1.67-.39,2.49-.15,2.38.7,7.35,2.12,7.95,2.03s5.83-2.44,8.31-3.57c.84-.38,1.5-1.06,1.86-1.9l2.89-6.67c.33-.75.89-1.38,1.61-1.77l7.51-4.13c.3-.17.62-.29.95-.36,2.08-.48,9.96-2.26,10.39-1.99.29.18,2.87.09,5.03-.03,1.73-.09,3.17-1.37,3.46-3.09h0c.44-2.6-1.89-4.81-4.46-4.23Z"/>
  <path class="cls-1" d="M704.35,417.32l-.65-.53c-.8-.66-1.94-.7-2.79-.1l-5.38,3.79-8.7,5.96c-.69.47-1.07,1.29-.99,2.13l.04.37c.11,1.19,1.11,2.09,2.3,2.09h3.81c.33,0,.65-.07.95-.2l4.42-2c.59-.27,1.04-.77,1.24-1.39l1.26-3.85c.22-.68.75-1.22,1.43-1.46l2.38-.84c1.25-.44,1.88-1.85,1.36-3.07h0c-.15-.35-.38-.66-.67-.89Z"/>
  <path class="cls-1" d="M655.56,446.71l3.7-3.6c.26-.26.62-.4.99-.4h8.15s.07,0,.1,0l28.29-1.99c.1,0,.2,0,.3.01l7.1,1.01c.11.02.22.04.32.09l15.95,6.32c.1.04.2.07.31.08l7.29,1.12c.75.11,1.27.79,1.19,1.54l-.4,3.82c-.02.19-.08.37-.17.53-.24.44-.74,1.29-1.05,1.34-.23.04-2.53-.61-4.6-1.22-1.22-.36-2.25.95-1.63,2.05h0c.63,1.11-.41,2.41-1.63,2.05l-10.05-3c-.07-.02-.14-.05-.21-.08l-10.36-5.03c-.53-.26-1.16-.16-1.59.24l-2.77,2.61c-.19.18-.42.3-.68.36-1.69.34-8.35,1.68-9.34,1.48s-6.23-2.23-7.19-2.6c-.1-.04-.21-.07-.32-.08l-10.39-1.38-9.87-1.2c-.52-.06-.97-.41-1.15-.91l-.61-1.63c-.2-.52-.06-1.12.34-1.51Z"/>
  <path class="cls-1" d="M549.89,446.39l10.93-1.82c.54-.09,1.01-.41,1.28-.88l11.45-8.01.3-.22c.75-.57,5.03-3.62,5.06-3.71l.47-10.25c.14-3.03.95-6,2.38-8.68,1.19-2.23,2.42-4.54,2.43-4.61l9.81-17.68c1.22-2.2,1.98-4.62,2.22-7.12.32-3.28.74-7.49.74-7.53.1-2.05-6.46-20.91-6.28-21.32s1.96-24.9.8-25.76c-.92-.69,2.2-6.24,2.17-10.23,0-.92,2.4-6.04,3.31-6.16l6.26-1.87,5.55-3.3c.11-.02.21-.05.32-.08l20.65-7.47c.18-.07.36-.16.51-.28l5.28-4.17c.31-.25.7-.38,1.09-.39l17.42-.35c.1,0,.2,0,.3.02l15.82,2.3,5.82.83c.53.07.99.37,1.28.82l5.5,8.54c.14.22.24.47.27.73l.9,6.39c.14.99-.54,1.91-1.53,2.06l-4.06.63c-.39.06-.78,0-1.13-.19l-13.83-7.26c-1.14-.6-2.52.13-2.66,1.41l-.91,7.85c-.07.61-.44,1.14-.99,1.42-2.22,1.12-7.9,3.96-8.3,3.96-.5,0-17.83.66-17.83.66l-9,.29c-.77.02-1.44.53-1.68,1.26l-.64,1.98c-.24.73,0,1.53.61,2l5.19,4.08c.66.52.88,1.41.54,2.17l-3.08,6.98s-.03.07-.04.1l-5.63,15.17c-.08.23-.12.47-.11.71l.26,6.4c.03.87.68,1.6,1.54,1.73l1.08.17c.74.12,1.48-.23,1.86-.88h0c.88-1.48,3.13-1.04,3.38.66l.41,2.76c.03.17.03.34,0,.51l-1.08,8.17c-.06.43-.27.83-.59,1.12l-10.52,9.44c-.12.11-.23.24-.32.38l-6.8,10.66c-.08.13-.15.26-.19.41l-4.15,12.47c-.02.06-.04.12-.05.19l-.85,3.92c-.15.68-.67,1.22-1.35,1.38l-3.1.77c-1.41.35-1.87,2.13-.8,3.12l5.88,5.41c.16.15.34.26.54.35l14.17,5.81,8.97,3.49c.95.37,1.41,1.44,1.03,2.38l-1.64,4.11c-.2.5-.61.89-1.13,1.06l-7.88,2.58c-.21.07-.42.1-.64.09l-12.3-.5c-.33-.01-.66-.12-.94-.3l-5.73-3.81c-.59-.39-1.34-.41-1.95-.05l-5.42,3.23c-.48.29-1.07.34-1.6.13l-8.08-3.14c-.51-.2-1.09-.16-1.57.12l-8.65,4.93-8.65,4.87c-.38.22-.83.29-1.26.2l-8.32-1.68c-.28-.06-.54-.18-.77-.36l-2.6-2.05c-1.24-.98-.73-2.98.83-3.24Z"/>
  <g>
    <polygon class="cls-2" points="5.79 559.49 20.69 597.1 0 724.22 262.95 726.28 253.49 809.67 681.35 809.67 668.38 726.28 958.91 726.28 905.32 635.75 941.55 558.49 5.79 559.49"/>
    <g>
      <path class="cls-1" d="M332.55,734.36l-.84,9.24h-49.33l1.16-9.24h49.02ZM314.49,734.36l-5.7,54.85h-13.75l6.2-54.85h13.25Z"/>
      <path class="cls-1" d="M355.78,734.36h22.8c4.54,0,8.44.61,11.71,1.82,3.27,1.21,5.76,3.01,7.45,5.41,1.7,2.4,2.47,5.37,2.31,8.93-.13,2.97-.78,5.51-1.95,7.61-1.17,2.1-2.77,3.85-4.79,5.23-2.02,1.39-4.37,2.51-7.02,3.37l-4.54,2.2h-19.87l.58-9.56h14.68c2.02,0,3.71-.33,5.07-.98,1.36-.65,2.41-1.57,3.15-2.75.74-1.18,1.15-2.57,1.24-4.15s-.18-3.04-.8-4.22c-.62-1.18-1.58-2.08-2.87-2.71-1.29-.63-2.92-.94-4.89-.94h-9.56l-3.02,45.61h-13.8l4.14-54.85ZM385.75,789.21l-12.3-24.88,14.32-.04,12.77,24.33-.03.59h-14.77Z"/>
      <path class="cls-1" d="M451.05,744.48l-16.35,44.72h-14.73l23.63-54.85h8.97l-1.53,10.12ZM463.17,768.31v9.64h-31.89l.22-9.64h31.67ZM463.81,789.21l-15.44-44.72-1.47-10.12h9.09l22.54,54.85h-14.73Z"/>
      <path class="cls-1" d="M513.81,734.36l1.83,54.85h-13.75l-1.33-54.85h13.25Z"/>
      <path class="cls-1" d="M554.49,734.36l3.37,54.85h-13.8l-2.86-54.85h13.29ZM583.49,779.42l.77,9.79h-31.1l-.57-9.79h30.9Z"/>
      <path class="cls-1" d="M638.55,774.34c-.11-.94-.36-1.79-.76-2.54-.39-.75-1.03-1.44-1.91-2.08-.88-.63-2.09-1.28-3.64-1.92-1.55-.65-3.55-1.31-6.01-1.99-2.81-.81-5.49-1.72-8.05-2.74-2.56-1.02-4.86-2.21-6.9-3.56-2.04-1.35-3.69-2.92-4.95-4.72s-2-3.87-2.22-6.24.15-4.35,1.09-6.19,2.36-3.4,4.25-4.7c1.89-1.3,4.15-2.29,6.8-2.98,2.65-.69,5.6-1.03,8.86-1.03,4.35,0,8.25.68,11.72,2.05s6.29,3.29,8.45,5.77c2.17,2.48,3.46,5.38,3.87,8.68h-13.36c-.17-1.46-.65-2.74-1.46-3.87-.8-1.12-1.91-2-3.34-2.63-1.43-.64-3.15-.96-5.17-.96s-3.59.26-4.86.79c-1.27.53-2.2,1.25-2.77,2.15-.58.91-.81,1.91-.7,2.99.09.86.42,1.65,1.01,2.35s1.39,1.36,2.44,1.97c1.04.61,2.31,1.19,3.8,1.73,1.49.55,3.19,1.07,5.1,1.57,3.33.92,6.32,1.95,8.95,3.07,2.64,1.13,4.9,2.41,6.79,3.84,1.9,1.44,3.39,3.06,4.5,4.89,1.1,1.83,1.8,3.9,2.09,6.22.31,2.48.06,4.69-.75,6.62-.81,1.94-2.13,3.58-3.95,4.95s-4.07,2.4-6.75,3.1c-2.68.7-5.73,1.06-9.15,1.06-3.11,0-6.21-.37-9.3-1.11s-5.94-1.88-8.52-3.41c-2.58-1.53-4.71-3.47-6.38-5.83-1.66-2.35-2.65-5.13-2.95-8.35h13.63c.17,1.68.58,3.1,1.23,4.27.65,1.17,1.51,2.11,2.58,2.83,1.07.72,2.34,1.23,3.8,1.54,1.46.31,3.08.46,4.85.46,2.05,0,3.68-.26,4.89-.79s2.08-1.25,2.59-2.18c.51-.92.7-1.95.57-3.07Z"/>
    </g>
    <g>
      <path class="cls-7" d="M74.62,580.76l-20.18,127.01h-25.26l21.39-127.01h24.06ZM63.21,707.77h-23.24l4.17-24.5h22.89c4.75,0,9-1.44,12.74-4.31,3.73-2.87,6.87-7.14,9.44-12.8,2.55-5.64,4.43-12.56,5.64-20.74l.81-5.49c.89-6.08,1.2-11.39.92-15.95-.28-4.55-1.12-8.34-2.52-11.38-1.4-3.03-3.35-5.31-5.87-6.84-2.51-1.52-5.54-2.29-9.09-2.29h-22.4l3.74-22.71h22.21c6.76,0,12.75,1.4,17.98,4.2,5.24,2.81,9.56,6.83,12.97,12.06,3.42,5.26,5.77,11.49,7.06,18.73,1.29,7.28,1.32,15.39.09,24.35l-.73,5.32c-1.24,9-3.55,17.3-6.93,24.87-3.41,7.62-7.65,14.23-12.73,19.82-5.1,5.62-10.81,9.97-17.13,13.03-6.33,3.08-13,4.62-20.01,4.62Z"/>
      <path class="cls-7" d="M164.16,580.76l-15.7,127.01h-25.26l16.91-127.01h24.06ZM208.99,580.76l-2.41,22.71h-53.87l2.89-22.71h53.39ZM196.61,629.7l-2.47,22.72h-47.64l2.89-22.72h47.22ZM197.91,683.26l-2.6,24.5h-55.85l3.11-24.5h55.33Z"/>
      <path class="cls-7" d="M236.3,580.76l12.41,95.96.97,31.05h-18.5l-21.68-127.01h26.8ZM246.73,676.72l29.19-95.96h26.94l-44.1,127.01h-18.28l6.25-31.05Z"/>
      <path class="cls-7" d="M334.49,580.76l-7.18,127.01h-25.19l8.38-127.01h23.99Z"/>
      <path class="cls-7" d="M374.14,580.76l-5.2,127.01h-25.26l6.4-127.01h24.06ZM413.51,683.26l-.6,24.5h-52.97l1.09-24.5h52.48Z"/>
      <path class="cls-7" d="M476.24,672.78c0-2.02-.23-3.84-.7-5.47-.47-1.63-1.34-3.15-2.61-4.57s-3.09-2.84-5.47-4.29c-2.37-1.44-5.48-2.95-9.32-4.54-4.5-1.87-8.82-3.99-12.96-6.36-4.14-2.36-7.82-5.12-11.04-8.29-3.21-3.15-5.74-6.85-7.56-11.08-1.82-4.22-2.67-9.12-2.55-14.7s1.18-10.12,3.2-14.37c2.01-4.23,4.78-7.84,8.29-10.83,3.51-2.98,7.6-5.25,12.28-6.83,4.68-1.58,9.78-2.37,15.3-2.37,7.3,0,13.75,1.54,19.36,4.61,5.62,3.08,10.04,7.46,13.27,13.14,3.24,5.71,4.9,12.47,4.97,20.31h-24.26c0-3.13-.52-5.88-1.55-8.26-1.04-2.38-2.59-4.24-4.66-5.59-2.07-1.35-4.67-2.03-7.8-2.03s-5.6.56-7.68,1.69-3.67,2.64-4.75,4.53c-1.08,1.9-1.64,3.98-1.67,6.25-.02,1.88.39,3.57,1.23,5.08.84,1.51,2.06,2.93,3.65,4.24,1.59,1.32,3.53,2.58,5.82,3.78s4.88,2.39,7.77,3.54c5.4,2.13,10.21,4.51,14.44,7.14,4.23,2.64,7.82,5.63,10.77,8.97,2.95,3.36,5.21,7.18,6.77,11.46,1.57,4.3,2.38,9.18,2.42,14.64.05,5.84-.81,11.05-2.58,15.61-1.78,4.58-4.35,8.47-7.73,11.65-3.39,3.19-7.45,5.61-12.2,7.26-4.75,1.65-10.06,2.47-15.92,2.47-5.38,0-10.66-.87-15.85-2.61-5.18-1.74-9.85-4.42-14-8.03-4.14-3.6-7.4-8.22-9.79-13.85-2.38-5.6-3.47-12.23-3.3-19.88h24.93c-.05,3.79.31,7,1.09,9.61.77,2.62,1.94,4.73,3.48,6.31,1.55,1.59,3.47,2.73,5.74,3.42,2.28.69,4.89,1.04,7.84,1.04,3.19,0,5.76-.59,7.71-1.75,1.95-1.17,3.38-2.73,4.28-4.67.9-1.94,1.36-4.07,1.36-6.39Z"/>
      <path class="cls-7" d="M545.19,580.76h39.27c7.68,0,14.41,1.39,20.22,4.16,5.82,2.78,10.43,6.91,13.83,12.4,3.41,5.51,5.36,12.35,5.82,20.53.41,7.15-.16,13.15-1.71,18-1.55,4.87-3.87,8.89-6.96,12.07-3.1,3.19-6.76,5.81-10.98,7.86l-7.85,5.74h-34.02l-.91-23.75h24.95c3.13,0,5.69-.69,7.68-2.08,1.99-1.39,3.45-3.36,4.38-5.93.93-2.56,1.31-5.61,1.14-9.16-.17-3.59-.85-6.67-2.03-9.22-1.18-2.55-2.83-4.5-4.94-5.86-2.11-1.35-4.67-2.03-7.66-2.03h-15.35l3.74,104.29h-25.26l-3.36-127.01ZM605.9,707.77l-25.44-57.71,26.18-.17,26.23,56.51.08,1.37h-27.06Z"/>
      <path class="cls-7" d="M725.59,640.19l.49,5.14c.93,9.76.67,18.58-.78,26.43-1.47,7.9-3.96,14.67-7.5,20.3-3.55,5.66-7.98,10-13.27,13.01-5.31,3.02-11.33,4.53-18.05,4.53s-13.06-1.51-18.87-4.53-10.92-7.35-15.38-13.01c-4.44-5.63-8.01-12.4-10.71-20.3-2.68-7.85-4.32-16.67-4.91-26.43l-.31-5.14c-.59-9.65-.03-18.26,1.66-25.84,1.68-7.54,4.29-13.92,7.84-19.17,3.53-5.23,7.86-9.21,13-11.96,5.13-2.74,10.91-4.11,17.34-4.11s12.36,1.37,17.92,4.11c5.57,2.75,10.53,6.73,14.91,11.96,4.39,5.25,8.02,11.63,10.9,19.17,2.89,7.59,4.81,16.19,5.72,25.84ZM701.06,645.33l-.46-5.32c-.54-6.25-1.44-11.74-2.7-16.47-1.26-4.72-2.86-8.66-4.79-11.84-1.93-3.17-4.17-5.56-6.72-7.17-2.55-1.61-5.37-2.41-8.46-2.41s-5.98.8-8.25,2.41c-2.28,1.61-4.11,4-5.5,7.17-1.39,3.18-2.33,7.13-2.8,11.84-.48,4.73-.5,10.22-.06,16.47l.38,5.32c.44,6.25,1.24,11.8,2.41,16.66,1.17,4.88,2.72,9.01,4.65,12.4,1.93,3.4,4.21,5.97,6.83,7.7,2.63,1.74,5.6,2.61,8.93,2.61s5.95-.87,8.28-2.61c2.33-1.73,4.19-4.31,5.59-7.7,1.4-3.39,2.32-7.53,2.78-12.4.46-4.86.42-10.41-.12-16.66Z"/>
      <path class="cls-7" d="M797.97,663.36h24.77c.85,9.01-.04,17-2.71,23.95-2.68,6.99-6.94,12.46-12.79,16.38-5.87,3.93-13.13,5.9-21.78,5.9-7.01,0-13.43-1.5-19.25-4.49-5.81-2.98-10.9-7.26-15.27-12.83-4.35-5.54-7.91-12.23-10.66-20.04-2.73-7.76-4.57-16.45-5.51-26.04l-.68-6.89c-.93-9.47-.76-17.95.51-25.44,1.26-7.45,3.48-13.76,6.66-18.96,3.16-5.17,7.18-9.11,12.05-11.83,4.87-2.71,10.45-4.07,16.75-4.07,8.67,0,16.23,1.88,22.69,5.65,6.47,3.78,11.79,8.99,15.95,15.64,4.19,6.68,7.15,14.32,8.89,22.94h-24.39c-.67-4.68-1.79-8.6-3.38-11.75s-3.76-5.51-6.53-7.09c-2.77-1.58-6.29-2.37-10.58-2.37-3,0-5.52.68-7.58,2.03-2.06,1.35-3.67,3.5-4.82,6.45-1.16,2.95-1.84,6.78-2.05,11.49-.21,4.73.05,10.44.78,17.14l.76,7.06c.73,6.78,1.69,12.59,2.88,17.42,1.19,4.85,2.69,8.83,4.49,11.92,1.81,3.1,3.98,5.39,6.49,6.86,2.52,1.47,5.49,2.2,8.91,2.2,3.8,0,6.93-.76,9.36-2.29,2.43-1.53,4.17-3.86,5.21-6.99,1.04-3.12,1.31-7.12.81-11.97Z"/>
      <path class="cls-7" d="M846.05,580.76l18.41,127.01h-25.26l-17.2-127.01h24.06ZM905.61,580.76l-29.03,62.83-18.58,31.88-8.61-28.47,10.73-27.69,15.81-38.54h29.68ZM897.13,707.77l-35.7-58.76,16.51-17.49,49.05,76.25h-29.87Z"/>
    </g>
  </g>
</svg>