<?xml version="1.0" encoding="UTF-8"?>
<svg id="Ebene_2" data-name="Ebene 2" xmlns="http://www.w3.org/2000/svg" viewBox="0 0 958.91 251.18">
  <defs>
    <style>
      .cls-1 {
        fill: #fff;
      }
    </style>
  </defs>
  <polygon points="5.79 1 20.69 38.61 0 165.73 262.95 167.79 253.49 251.18 681.35 251.18 668.38 167.79 958.91 167.79 905.32 77.26 941.55 0 5.79 1"/>
  <g>
    <path class="cls-1" d="M332.55,175.87l-.84,9.24h-49.33l1.16-9.24h49.02ZM314.49,175.87l-5.7,54.85h-13.75l6.2-54.85h13.25Z"/>
    <path class="cls-1" d="M355.78,175.87h22.8c4.54,0,8.44.61,11.71,1.82,3.27,1.21,5.76,3.01,7.45,5.41,1.7,2.4,2.47,5.37,2.31,8.93-.13,2.97-.78,5.51-1.95,7.61-1.17,2.1-2.77,3.85-4.79,5.23-2.02,1.39-4.37,2.51-7.02,3.37l-4.54,2.2h-19.87l.58-9.56h14.68c2.02,0,3.71-.33,5.07-.98,1.36-.65,2.41-1.57,3.15-2.75.74-1.18,1.15-2.57,1.24-4.15s-.18-3.04-.8-4.22c-.62-1.18-1.58-2.08-2.87-2.71-1.29-.63-2.92-.94-4.89-.94h-9.56l-3.02,45.61h-13.8l4.14-54.85ZM385.75,230.72l-12.3-24.88,14.32-.04,12.77,24.33-.03.59h-14.77Z"/>
    <path class="cls-1" d="M451.05,185.99l-16.35,44.72h-14.73l23.63-54.85h8.97l-1.53,10.12ZM463.17,209.82v9.64h-31.89l.22-9.64h31.67ZM463.81,230.72l-15.44-44.72-1.47-10.12h9.09l22.54,54.85h-14.73Z"/>
    <path class="cls-1" d="M513.81,175.87l1.83,54.85h-13.75l-1.33-54.85h13.25Z"/>
    <path class="cls-1" d="M554.49,175.87l3.37,54.85h-13.8l-2.86-54.85h13.29ZM583.49,220.93l.77,9.79h-31.1l-.57-9.79h30.9Z"/>
    <path class="cls-1" d="M638.55,215.85c-.11-.94-.36-1.79-.76-2.54-.39-.75-1.03-1.44-1.91-2.08-.88-.63-2.09-1.28-3.64-1.92-1.55-.65-3.55-1.31-6.01-1.99-2.81-.81-5.49-1.72-8.05-2.74-2.56-1.02-4.86-2.21-6.9-3.56-2.04-1.35-3.69-2.92-4.95-4.72s-2-3.87-2.22-6.24.15-4.35,1.09-6.19,2.36-3.4,4.25-4.7c1.89-1.3,4.15-2.29,6.8-2.98,2.65-.69,5.6-1.03,8.86-1.03,4.35,0,8.25.68,11.72,2.05s6.29,3.29,8.45,5.77c2.17,2.48,3.46,5.38,3.87,8.68h-13.36c-.17-1.46-.65-2.74-1.46-3.87-.8-1.12-1.91-2-3.34-2.63-1.43-.64-3.15-.96-5.17-.96s-3.59.26-4.86.79c-1.27.53-2.2,1.25-2.77,2.15-.58.91-.81,1.91-.7,2.99.09.86.42,1.65,1.01,2.35s1.39,1.36,2.44,1.97c1.04.61,2.31,1.19,3.8,1.73,1.49.55,3.19,1.07,5.1,1.57,3.33.92,6.32,1.95,8.95,3.07,2.64,1.13,4.9,2.41,6.79,3.84,1.9,1.44,3.39,3.06,4.5,4.89,1.1,1.83,1.8,3.9,2.09,6.22.31,2.48.06,4.69-.75,6.62-.81,1.94-2.13,3.58-3.95,4.95s-4.07,2.4-6.75,3.1c-2.68.7-5.73,1.06-9.15,1.06-3.11,0-6.21-.37-9.3-1.11s-5.94-1.88-8.52-3.41c-2.58-1.53-4.71-3.47-6.38-5.83-1.66-2.35-2.65-5.13-2.95-8.35h13.63c.17,1.68.58,3.1,1.23,4.27.65,1.17,1.51,2.11,2.58,2.83,1.07.72,2.34,1.23,3.8,1.54,1.46.31,3.08.46,4.85.46,2.05,0,3.68-.26,4.89-.79s2.08-1.25,2.59-2.18c.51-.92.7-1.95.57-3.07Z"/>
  </g>
  <g>
    <path class="cls-1" d="M74.62,22.27l-20.18,127.01h-25.26L50.56,22.27h24.06ZM63.21,149.27h-23.24l4.17-24.5h22.89c4.75,0,9-1.44,12.74-4.31,3.73-2.87,6.87-7.14,9.44-12.8,2.55-5.64,4.43-12.56,5.64-20.74l.81-5.49c.89-6.08,1.2-11.39.92-15.95-.28-4.55-1.12-8.34-2.52-11.38-1.4-3.03-3.35-5.31-5.87-6.84-2.51-1.52-5.54-2.29-9.09-2.29h-22.4l3.74-22.71h22.21c6.76,0,12.75,1.4,17.98,4.2,5.24,2.81,9.56,6.83,12.97,12.06,3.42,5.26,5.77,11.49,7.06,18.73,1.29,7.28,1.32,15.39.09,24.35l-.73,5.32c-1.24,9-3.55,17.3-6.93,24.87-3.41,7.62-7.65,14.23-12.73,19.82-5.1,5.62-10.81,9.97-17.13,13.03-6.33,3.08-13,4.62-20.01,4.62Z"/>
    <path class="cls-1" d="M164.16,22.27l-15.7,127.01h-25.26l16.91-127.01h24.06ZM208.99,22.27l-2.41,22.71h-53.87l2.89-22.71h53.39ZM196.61,71.21l-2.47,22.72h-47.64l2.89-22.72h47.22ZM197.91,124.77l-2.6,24.5h-55.85l3.11-24.5h55.33Z"/>
    <path class="cls-1" d="M236.3,22.27l12.41,95.96.97,31.05h-18.5l-21.68-127.01h26.8ZM246.73,118.22l29.19-95.96h26.94l-44.1,127.01h-18.28l6.25-31.05Z"/>
    <path class="cls-1" d="M334.49,22.27l-7.18,127.01h-25.19l8.38-127.01h23.99Z"/>
    <path class="cls-1" d="M374.14,22.27l-5.2,127.01h-25.26l6.4-127.01h24.06ZM413.51,124.77l-.6,24.5h-52.97l1.09-24.5h52.48Z"/>
    <path class="cls-1" d="M476.24,114.29c0-2.02-.23-3.84-.7-5.47-.47-1.63-1.34-3.15-2.61-4.57s-3.09-2.84-5.47-4.29c-2.37-1.44-5.48-2.95-9.32-4.54-4.5-1.87-8.82-3.99-12.96-6.36-4.14-2.36-7.82-5.12-11.04-8.29-3.21-3.15-5.74-6.85-7.56-11.08-1.82-4.22-2.67-9.12-2.55-14.7s1.18-10.12,3.2-14.37c2.01-4.23,4.78-7.84,8.29-10.83,3.51-2.98,7.6-5.25,12.28-6.83,4.68-1.58,9.78-2.37,15.3-2.37,7.3,0,13.75,1.54,19.36,4.61,5.62,3.08,10.04,7.46,13.27,13.14,3.24,5.71,4.9,12.47,4.97,20.31h-24.26c0-3.13-.52-5.88-1.55-8.26-1.04-2.38-2.59-4.24-4.66-5.59-2.07-1.35-4.67-2.03-7.8-2.03s-5.6.56-7.68,1.69-3.67,2.64-4.75,4.53c-1.08,1.9-1.64,3.98-1.67,6.25-.02,1.88.39,3.57,1.23,5.08.84,1.51,2.06,2.93,3.65,4.24,1.59,1.32,3.53,2.58,5.82,3.78s4.88,2.39,7.77,3.54c5.4,2.13,10.21,4.51,14.44,7.14,4.23,2.64,7.82,5.63,10.77,8.97,2.95,3.36,5.21,7.18,6.77,11.46,1.57,4.3,2.38,9.18,2.42,14.64.05,5.84-.81,11.05-2.58,15.61-1.78,4.58-4.35,8.47-7.73,11.65-3.39,3.19-7.45,5.61-12.2,7.26-4.75,1.65-10.06,2.47-15.92,2.47-5.38,0-10.66-.87-15.85-2.61-5.18-1.74-9.85-4.42-14-8.03-4.14-3.6-7.4-8.22-9.79-13.85-2.38-5.6-3.47-12.23-3.3-19.88h24.93c-.05,3.79.31,7,1.09,9.61.77,2.62,1.94,4.73,3.48,6.31,1.55,1.59,3.47,2.73,5.74,3.42,2.28.69,4.89,1.04,7.84,1.04,3.19,0,5.76-.59,7.71-1.75,1.95-1.17,3.38-2.73,4.28-4.67.9-1.94,1.36-4.07,1.36-6.39Z"/>
    <path class="cls-1" d="M545.19,22.27h39.27c7.68,0,14.41,1.39,20.22,4.16,5.82,2.78,10.43,6.91,13.83,12.4,3.41,5.51,5.36,12.35,5.82,20.53.41,7.15-.16,13.15-1.71,18-1.55,4.87-3.87,8.89-6.96,12.07-3.1,3.19-6.76,5.81-10.98,7.86l-7.85,5.74h-34.02l-.91-23.75h24.95c3.13,0,5.69-.69,7.68-2.08,1.99-1.39,3.45-3.36,4.38-5.93.93-2.56,1.31-5.61,1.14-9.16-.17-3.59-.85-6.67-2.03-9.22-1.18-2.55-2.83-4.5-4.94-5.86-2.11-1.35-4.67-2.03-7.66-2.03h-15.35l3.74,104.29h-25.26l-3.36-127.01ZM605.9,149.27l-25.44-57.71,26.18-.17,26.23,56.51.08,1.37h-27.06Z"/>
    <path class="cls-1" d="M725.59,81.69l.49,5.14c.93,9.76.67,18.58-.78,26.43-1.47,7.9-3.96,14.67-7.5,20.3-3.55,5.66-7.98,10-13.27,13.01-5.31,3.02-11.33,4.53-18.05,4.53s-13.06-1.51-18.87-4.53-10.92-7.35-15.38-13.01c-4.44-5.63-8.01-12.4-10.71-20.3-2.68-7.85-4.32-16.67-4.91-26.43l-.31-5.14c-.59-9.65-.03-18.26,1.66-25.84,1.68-7.54,4.29-13.92,7.84-19.17,3.53-5.23,7.86-9.21,13-11.96,5.13-2.74,10.91-4.11,17.34-4.11s12.36,1.37,17.92,4.11c5.57,2.75,10.53,6.73,14.91,11.96,4.39,5.25,8.02,11.63,10.9,19.17,2.89,7.59,4.81,16.19,5.72,25.84ZM701.06,86.84l-.46-5.32c-.54-6.25-1.44-11.74-2.7-16.47-1.26-4.72-2.86-8.66-4.79-11.84-1.93-3.17-4.17-5.56-6.72-7.17-2.55-1.61-5.37-2.41-8.46-2.41s-5.98.8-8.25,2.41c-2.28,1.61-4.11,4-5.5,7.17-1.39,3.18-2.33,7.13-2.8,11.84-.48,4.73-.5,10.22-.06,16.47l.38,5.32c.44,6.25,1.24,11.8,2.41,16.66,1.17,4.88,2.72,9.01,4.65,12.4,1.93,3.4,4.21,5.97,6.83,7.7,2.63,1.74,5.6,2.61,8.93,2.61s5.95-.87,8.28-2.61c2.33-1.73,4.19-4.31,5.59-7.7,1.4-3.39,2.32-7.53,2.78-12.4.46-4.86.42-10.41-.12-16.66Z"/>
    <path class="cls-1" d="M797.97,104.87h24.77c.85,9.01-.04,17-2.71,23.95-2.68,6.99-6.94,12.46-12.79,16.38-5.87,3.93-13.13,5.9-21.78,5.9-7.01,0-13.43-1.5-19.25-4.49-5.81-2.98-10.9-7.26-15.27-12.83-4.35-5.54-7.91-12.23-10.66-20.04-2.73-7.76-4.57-16.45-5.51-26.04l-.68-6.89c-.93-9.47-.76-17.95.51-25.44,1.26-7.45,3.48-13.76,6.66-18.96,3.16-5.17,7.18-9.11,12.05-11.83,4.87-2.71,10.45-4.07,16.75-4.07,8.67,0,16.23,1.88,22.69,5.65,6.47,3.78,11.79,8.99,15.95,15.64,4.19,6.68,7.15,14.32,8.89,22.94h-24.39c-.67-4.68-1.79-8.6-3.38-11.75s-3.76-5.51-6.53-7.09c-2.77-1.58-6.29-2.37-10.58-2.37-3,0-5.52.68-7.58,2.03-2.06,1.35-3.67,3.5-4.82,6.45-1.16,2.95-1.84,6.78-2.05,11.49-.21,4.73.05,10.44.78,17.14l.76,7.06c.73,6.78,1.69,12.59,2.88,17.42,1.19,4.85,2.69,8.83,4.49,11.92,1.81,3.1,3.98,5.39,6.49,6.86,2.52,1.47,5.49,2.2,8.91,2.2,3.8,0,6.93-.76,9.36-2.29,2.43-1.53,4.17-3.86,5.21-6.99,1.04-3.12,1.31-7.12.81-11.97Z"/>
    <path class="cls-1" d="M846.05,22.27l18.41,127.01h-25.26l-17.2-127.01h24.06ZM905.61,22.27l-29.03,62.83-18.58,31.88-8.61-28.47,10.73-27.69,15.81-38.54h29.68ZM897.13,149.27l-35.7-58.76,16.51-17.49,49.05,76.25h-29.87Z"/>
  </g>
</svg>