<?xml version="1.0" encoding="UTF-8"?>
<svg id="Ebene_2" data-name="Ebene 2" xmlns="http://www.w3.org/2000/svg" viewBox="0 0 726.9 218.44">
  <defs>
    <style>
      .cls-1 {
        fill: #d58d47;
      }

      .cls-2 {
        fill: #fff;
      }
    </style>
  </defs>
  <path d="M28.82,0L0,166.33h120.61l-10.02,52.11h516.44l-11.88-52.11h64.96c28.6,0,39.16-25.8,42.35-33.28h0c10.23-29.92,2.04-66.67-16.83-100.43h0c-12.11-18.14-30.31-32.62-52.13-32.62H28.82Z"/>
  <g>
    <path class="cls-2" d="M46.86,19.67h37.53c7.48,0,13.74,1.38,18.8,4.14,5.08,2.77,8.71,6.89,10.88,12.37,2.19,5.52,2.7,12.38,1.52,20.62-.99,6.92-2.74,12.85-5.25,17.76-2.52,4.94-5.66,9.05-9.42,12.31-3.77,3.28-8.01,5.94-12.72,7.97l-8.26,5.23h-33.45l3.89-22.61h24.57c3.38,0,6.3-.76,8.76-2.29,2.46-1.52,4.47-3.67,6.04-6.44,1.56-2.76,2.63-5.99,3.2-9.69s.53-7.06-.18-9.8c-.71-2.73-2.05-4.81-4.02-6.26-1.97-1.44-4.58-2.16-7.85-2.16h-15.84l-18.77,108.14h-23.53L46.86,19.67ZM80.96,148.96l-13.59-59.77,24.04-.09,14.94,58.43-.2,1.43h-25.19Z"/>
    <path class="cls-2" d="M159.06,19.67l-15.66,129.29h-23.46l17.3-129.29h21.82Z"/>
    <path class="cls-2" d="M198.54,19.67l-12.69,129.29h-23.53l14.34-129.29h21.89ZM195.59,148.96h-23.1l2.65-23.75h22.66c5.18,0,9.69-1.56,13.51-4.69,3.81-3.11,6.89-7.71,9.22-13.78,2.32-6.03,3.81-13.32,4.49-21.84l.47-5.94c.51-6.34.44-11.9-.18-16.68-.62-4.76-1.78-8.73-3.48-11.93-1.69-3.19-3.91-5.57-6.65-7.16-2.74-1.58-5.97-2.37-9.68-2.37h-22.02l2.23-21.15h21.76c6.62,0,12.56,1.38,17.82,4.14,5.28,2.77,9.74,6.75,13.38,11.95,3.67,5.23,6.37,11.46,8.1,18.71,1.74,7.31,2.32,15.52,1.71,24.67l-.39,5.76c-.62,9.24-2.34,17.75-5.17,25.49-2.86,7.81-6.62,14.61-11.3,20.36-4.71,5.79-10.12,10.28-16.23,13.44-6.13,3.17-12.74,4.76-19.81,4.76Z"/>
    <path class="cls-2" d="M287.71,19.67l-6,129.29h-23.53l7.64-129.29h21.89ZM332.36,19.67l-.43,21.15h-52.75l1.07-21.15h52.11ZM324.37,69.47l-.53,21.6h-47.2l1.1-21.6h46.63ZM330.13,125.21l-.49,23.75h-55.95l1.2-23.75h55.23Z"/>
    <path class="cls-2" d="M392.73,19.67l19.03,112.54-2.63,16.74h-15.02l-23.07-129.29h21.69ZM402.45,131.74l17.34-112.08h11.21l4.95,13.15-17.73,116.14h-13.21l-2.57-17.21ZM438.32,19.67l25.67,112.73-1.58,16.56h-13.14l-26.37-116.22,4.22-13.07h11.21ZM454.65,131.65l10.8-111.98h21.62l-13.84,129.29h-14.87l-3.71-17.31Z"/>
    <path class="cls-2" d="M520.44,19.67l11.48,129.29h-23.46l-9.84-129.29h21.82Z"/>
    <path class="cls-2" d="M559.92,19.67l14.44,129.29h-23.53l-12.8-129.29h21.89ZM616.18,125.21l3.23,23.75h-53.06l-2.55-23.75h52.38Z"/>
    <path class="cls-2" d="M634.39,19.67l20.03,129.29h-23.53l-18.39-129.29h21.89ZM664.17,148.96h-23.1l-3.37-23.75h22.66c5.18,0,9.29-1.56,12.33-4.69,3.03-3.11,4.94-7.71,5.74-13.78.79-6.03.44-13.32-1.04-21.84l-1.03-5.94c-1.1-6.34-2.57-11.9-4.4-16.68-1.83-4.76-3.99-8.73-6.5-11.93-2.5-3.19-5.32-5.57-8.47-7.16-3.14-1.58-6.57-2.37-10.28-2.37h-22.02l-3.12-21.15h21.76c6.62,0,12.91,1.38,18.87,4.14,5.98,2.77,11.45,6.75,16.41,11.95s9.27,11.46,12.84,18.71c3.59,7.31,6.25,15.52,7.95,24.67l1.07,5.76c1.72,9.24,2.16,17.75,1.29,25.49-.88,7.81-2.92,14.61-6.15,20.36-3.24,5.79-7.52,10.28-12.82,13.44-5.33,3.17-11.53,4.76-18.61,4.76Z"/>
  </g>
  <g>
    <path class="cls-1" d="M140,172.5l-6.07,35.27h-7.9l6.28-35.27h7.69ZM137.2,207.77h-7.75l1.14-6.24h7.67c1.75,0,3.3-.41,4.64-1.24,1.34-.83,2.46-2.05,3.35-3.68.89-1.62,1.52-3.59,1.9-5.91l.27-1.62c.28-1.74.36-3.27.23-4.59-.13-1.32-.47-2.43-1-3.32-.53-.89-1.26-1.56-2.19-2.01s-2.04-.67-3.34-.67h-7.68l1.05-6h7.64c2.33,0,4.39.39,6.19,1.18,1.8.79,3.29,1.92,4.46,3.39s1.99,3.22,2.45,5.25c.45,2.03.49,4.3.09,6.81l-.25,1.57c-.4,2.51-1.15,4.81-2.26,6.89-1.12,2.09-2.52,3.89-4.2,5.41-1.69,1.52-3.58,2.7-5.69,3.53s-4.35,1.24-6.72,1.24Z"/>
    <path class="cls-1" d="M171.32,172.5l-5.23,35.27h-7.9l5.44-35.27h7.69ZM187.01,172.5l-.82,6h-18.39l.9-6h18.3ZM182.69,186.47l-.82,5.91h-16.16l.89-5.91h16.09ZM183.02,201.53l-.85,6.24h-18.77l.94-6.24h18.68Z"/>
    <path class="cls-1" d="M196.47,172.5l4.25,27.29.25,7.99h-5.81l-7.22-35.27h8.54ZM200.04,199.79l11.03-27.29h8.56l-16.03,35.27h-5.74l2.18-7.99Z"/>
    <path class="cls-1" d="M230.67,172.5l-3.65,35.27h-7.87l3.86-35.27h7.67Z"/>
    <path class="cls-1" d="M244.54,172.5l-3.28,35.27h-7.9l3.49-35.27h7.69ZM256.88,201.53l-.51,6.24h-17.8l.59-6.24h17.72Z"/>
    <path class="cls-1" d="M279.13,198.29c.04-.6-.01-1.15-.16-1.63s-.44-.93-.87-1.33c-.44-.41-1.06-.82-1.88-1.23-.82-.41-1.9-.84-3.24-1.28-1.53-.52-2.97-1.11-4.34-1.76-1.36-.65-2.56-1.42-3.59-2.29-1.03-.87-1.82-1.88-2.35-3.04-.54-1.15-.74-2.5-.62-4.03s.55-2.82,1.29-4.01c.74-1.19,1.72-2.2,2.96-3.05,1.23-.84,2.65-1.49,4.25-1.94,1.6-.45,3.35-.67,5.24-.67,2.52,0,4.7.44,6.55,1.33,1.86.89,3.27,2.14,4.24,3.74.98,1.61,1.4,3.48,1.27,5.62h-7.7c.06-.94-.08-1.78-.42-2.5-.34-.72-.89-1.29-1.64-1.71-.75-.41-1.72-.62-2.88-.62s-2.1.17-2.89.51c-.79.34-1.4.81-1.83,1.39-.43.59-.67,1.23-.72,1.93-.04.56.07,1.07.33,1.52.26.46.66.88,1.19,1.27s1.2.77,2,1.12c.8.35,1.72.69,2.77,1.01,1.82.59,3.43,1.25,4.82,1.98,1.39.73,2.56,1.55,3.49,2.47s1.61,1.97,2.05,3.14.61,2.5.52,3.99c-.09,1.59-.48,3-1.16,4.23-.68,1.23-1.61,2.29-2.8,3.15s-2.59,1.53-4.2,1.97c-1.61.45-3.4.67-5.35.67-1.78,0-3.51-.24-5.2-.71-1.69-.47-3.2-1.2-4.52-2.17-1.32-.97-2.33-2.21-3.04-3.72-.71-1.5-.98-3.28-.81-5.34h7.83c-.08,1.08,0,1.99.25,2.73.25.75.64,1.35,1.18,1.81.54.46,1.21.79,2.01.99.81.2,1.72.3,2.73.3,1.17,0,2.14-.17,2.89-.5.75-.34,1.33-.8,1.72-1.39.39-.59.61-1.24.66-1.96Z"/>
    <path class="cls-1" d="M305.02,172.5h13.19c2.63,0,4.89.39,6.79,1.18,1.9.79,3.35,1.96,4.35,3.51s1.47,3.48,1.4,5.78c-.05,1.92-.41,3.56-1.07,4.91-.66,1.35-1.56,2.48-2.71,3.36-1.15.89-2.49,1.61-4.01,2.16l-2.59,1.41h-11.42l.22-6.15h8.45c1.16,0,2.13-.21,2.91-.63.78-.42,1.37-1.01,1.79-1.77.41-.76.64-1.66.67-2.68s-.13-1.97-.5-2.73c-.37-.76-.93-1.35-1.68-1.75-.75-.41-1.7-.61-2.83-.61h-5.52l-1.21,29.28h-7.9l1.67-35.27ZM322.88,207.77l-7.3-15.9,8.23-.02,7.53,15.56v.37h-8.46Z"/>
    <path class="cls-1" d="M364.86,189.13v1.57c0,2.69-.38,5.11-1.11,7.27s-1.78,4.01-3.13,5.54c-1.35,1.53-2.96,2.71-4.81,3.53-1.86.82-3.91,1.23-6.15,1.23s-4.29-.41-6.13-1.23c-1.84-.82-3.43-2-4.75-3.53s-2.33-3.38-3.02-5.54c-.69-2.15-.99-4.58-.93-7.27l.04-1.57c.07-2.67.49-5.07,1.27-7.18.78-2.11,1.84-3.9,3.19-5.38,1.35-1.47,2.93-2.6,4.76-3.37,1.82-.78,3.82-1.17,6.01-1.17s4.18.39,5.98,1.17c1.8.78,3.36,1.9,4.67,3.37s2.33,3.26,3.05,5.38c.72,2.12,1.08,4.51,1.08,7.18ZM356.99,190.7v-1.62c.03-1.79-.12-3.37-.43-4.74-.31-1.37-.76-2.51-1.35-3.44-.59-.92-1.33-1.62-2.21-2.09-.88-.47-1.88-.7-3-.7s-2.19.23-3.07.7c-.88.47-1.62,1.16-2.23,2.09-.61.93-1.08,2.07-1.42,3.44s-.52,2.95-.55,4.74l-.03,1.62c-.03,1.78.09,3.37.38,4.76s.73,2.57,1.32,3.54,1.33,1.7,2.22,2.19,1.92.74,3.11.74,2.16-.25,3.06-.74,1.65-1.22,2.27-2.19,1.09-2.15,1.41-3.54.49-2.98.51-4.76Z"/>
    <path class="cls-1" d="M389.71,195.74h7.78c-.07,2.45-.68,4.61-1.82,6.49-1.14,1.89-2.76,3.36-4.83,4.43s-4.57,1.6-7.46,1.6c-2.31,0-4.38-.41-6.21-1.22-1.83-.81-3.38-1.97-4.65-3.48s-2.24-3.32-2.91-5.44c-.67-2.11-1-4.49-1-7.13v-2.16c0-2.62.34-4.97,1.01-7.05.68-2.07,1.64-3.83,2.9-5.29,1.25-1.45,2.76-2.57,4.52-3.34,1.76-.77,3.72-1.16,5.89-1.16,2.92,0,5.4.53,7.43,1.58,2.03,1.06,3.63,2.51,4.78,4.36s1.87,3.99,2.14,6.38h-7.73c-.09-1.36-.36-2.51-.82-3.44-.46-.93-1.15-1.64-2.07-2.11-.92-.48-2.14-.71-3.66-.71-1.11,0-2.07.21-2.9.62s-1.51,1.06-2.05,1.93c-.54.88-.94,1.99-1.2,3.34-.26,1.35-.38,2.96-.37,4.83v2.2c.03,1.86.16,3.48.41,4.85.25,1.37.65,2.51,1.19,3.41.54.9,1.25,1.57,2.1,2.02.86.44,1.9.67,3.12.67,1.4,0,2.56-.23,3.49-.68.92-.45,1.63-1.14,2.11-2.05.48-.92.75-2.07.81-3.45Z"/>
    <path class="cls-1" d="M408.93,172.5l1.1,35.27h-7.9l-.9-35.27h7.69ZM429.46,172.5l-12.81,17.4-7.67,8.78-1.64-7.4,4.99-7.58,7.69-11.21h9.44ZM421.95,207.77l-10.27-16.34,5.76-4.67,13.86,21.01h-9.35Z"/>
    <path class="cls-1" d="M469.18,172.5l.46,6h-28.48l-.33-6h28.35ZM458.73,172.5l2.43,35.27h-7.87l-2.23-35.27h7.67Z"/>
    <path class="cls-1" d="M472.95,172.5h13.19c2.63,0,4.94.39,6.94,1.18,2,.79,3.6,1.96,4.79,3.51,1.2,1.55,1.91,3.48,2.14,5.78.19,1.92.04,3.56-.44,4.91-.49,1.35-1.25,2.48-2.29,3.36-1.04.89-2.28,1.61-3.73,2.16l-2.41,1.41h-11.42l-.56-6.15h8.45c1.16,0,2.11-.21,2.83-.63.72-.42,1.25-1.01,1.56-1.77s.43-1.66.33-2.68-.38-1.97-.85-2.73c-.47-.76-1.1-1.35-1.91-1.75s-1.77-.61-2.91-.61h-5.52l2.5,29.28h-7.9l-2.81-35.27ZM495.28,207.77l-9.32-15.9,8.23-.02,9.51,15.56.04.37h-8.45Z"/>
    <path class="cls-1" d="M519.21,179.07l-5.83,28.71h-8.43l9.15-35.27h5.19l-.08,6.57ZM528.06,194.42l.74,6.17h-18.28l-.65-6.17h18.2ZM530.04,207.77l-12.37-28.71-1.66-6.57h5.26l17.2,35.27h-8.43Z"/>
    <path class="cls-1" d="M545.04,172.5l4.73,35.27h-7.87l-4.53-35.27h7.67Z"/>
    <path class="cls-1" d="M558.91,172.5l5.1,35.27h-7.9l-4.9-35.27h7.69ZM578.15,201.53l.97,6.24h-17.8l-.89-6.24h17.72Z"/>
    <path class="cls-1" d="M599.63,198.29c-.1-.6-.29-1.15-.54-1.63s-.65-.93-1.19-1.33-1.26-.82-2.18-1.23c-.92-.41-2.1-.84-3.55-1.28-1.65-.52-3.24-1.11-4.75-1.76-1.52-.65-2.9-1.42-4.14-2.29-1.24-.87-2.26-1.88-3.07-3.04-.81-1.15-1.34-2.5-1.58-4.03s-.12-2.82.34-4.01,1.2-2.2,2.23-3.05c1.03-.84,2.29-1.49,3.79-1.94,1.5-.45,3.19-.67,5.08-.67,2.52,0,4.8.44,6.87,1.33,2.07.89,3.78,2.14,5.13,3.74,1.36,1.61,2.23,3.48,2.61,5.62h-7.7c-.16-.94-.5-1.78-1.01-2.5-.51-.72-1.19-1.29-2.05-1.71-.85-.41-1.86-.62-3.03-.62s-2.06.17-2.77.51-1.21.81-1.5,1.39-.38,1.23-.26,1.93c.09.56.32,1.07.69,1.52.37.46.87.88,1.5,1.27s1.39.77,2.27,1.12c.89.35,1.89.69,3.01,1.01,1.96.59,3.72,1.25,5.29,1.98,1.57.73,2.92,1.55,4.08,2.47,1.15.92,2.08,1.97,2.79,3.14s1.2,2.5,1.46,3.99c.28,1.59.23,3-.15,4.23s-1.07,2.29-2.05,3.15-2.23,1.53-3.73,1.97c-1.51.45-3.24.67-5.19.67-1.78,0-3.57-.24-5.37-.71-1.8-.47-3.48-1.2-5.04-2.17-1.55-.97-2.86-2.21-3.93-3.72-1.07-1.5-1.76-3.28-2.08-5.34h7.83c.18,1.08.48,1.99.9,2.73.43.75.96,1.35,1.61,1.81.65.46,1.4.79,2.25.99.85.2,1.79.3,2.8.3,1.17,0,2.1-.17,2.77-.5.67-.34,1.14-.8,1.39-1.39.25-.59.31-1.24.19-1.96Z"/>
  </g>
</svg>